TITLE ""
FILE "2Q_j_1407-1420.mp3" MP3
  TRACK 01 AUDIO
    TITLE "2Q_j_1407-1420_01"
    INDEX 01 00:00:00
  TRACK 02 AUDIO
    TITLE "2Q_j_1407-1420_02"
    INDEX 01 00:01:37
  TRACK 03 AUDIO
    TITLE "2Q_j_1407-1420_03"
    INDEX 01 00:02:07
  TRACK 04 AUDIO
    TITLE "2Q_j_1407-1420_04"
    INDEX 01 00:03:65
  TRACK 05 AUDIO
    TITLE "2Q_j_1407-1420_05"
    INDEX 01 00:04:36
  TRACK 06 AUDIO
    TITLE "2Q_j_1407-1420_06"
    INDEX 01 00:08:51
  TRACK 07 AUDIO
    TITLE "2Q_j_1407-1420_07"
    INDEX 01 00:09:21
  TRACK 08 AUDIO
    TITLE "2Q_j_1407-1420_08"
    INDEX 01 00:10:46
  TRACK 09 AUDIO
    TITLE "2Q_j_1407-1420_09"
    INDEX 01 00:11:16
  TRACK 10 AUDIO
    TITLE "2Q_j_1407-1420_10"
    INDEX 01 00:13:54
  TRACK 11 AUDIO
    TITLE "2Q_j_1407-1420_11"
    INDEX 01 00:14:24
  TRACK 12 AUDIO
    TITLE "2Q_j_1407-1420_12"
    INDEX 01 00:17:17
  TRACK 13 AUDIO
    TITLE "2Q_j_1407-1420_13"
    INDEX 01 00:17:71
  TRACK 14 AUDIO
    TITLE "2Q_j_1407-1420_14"
    INDEX 01 00:19:15
  TRACK 15 AUDIO
    TITLE "2Q_j_1407-1420_15"
    INDEX 01 00:19:61
  TRACK 16 AUDIO
    TITLE "2Q_j_1407-1420_16"
    INDEX 01 00:23:13
  TRACK 17 AUDIO
    TITLE "2Q_j_1407-1420_17"
    INDEX 01 00:23:56
  TRACK 18 AUDIO
    TITLE "2Q_j_1407-1420_18"
    INDEX 01 00:26:25
  TRACK 19 AUDIO
    TITLE "2Q_j_1407-1420_19"
    INDEX 01 00:26:72
  TRACK 20 AUDIO
    TITLE "2Q_j_1407-1420_20"
    INDEX 01 00:28:34
  TRACK 21 AUDIO
    TITLE "2Q_j_1407-1420_21"
    INDEX 01 00:29:08
  TRACK 22 AUDIO
    TITLE "2Q_j_1407-1420_22"
    INDEX 01 00:31:09
  TRACK 23 AUDIO
    TITLE "2Q_j_1407-1420_23"
    INDEX 01 00:31:54
  TRACK 24 AUDIO
    TITLE "2Q_j_1407-1420_24"
    INDEX 01 00:35:56
  TRACK 25 AUDIO
    TITLE "2Q_j_1407-1420_25"
    INDEX 01 00:36:28
  TRACK 26 AUDIO
    TITLE "2Q_j_1407-1420_26"
    INDEX 01 00:38:21
  TRACK 27 AUDIO
    TITLE "2Q_j_1407-1420_27"
    INDEX 01 00:38:68
  TRACK 28 AUDIO
    TITLE "2Q_j_1407-1420_28"
    INDEX 01 00:42:19
  TRACK 29 AUDIO
    TITLE "2Q_j_1407-1420_29"
    INDEX 01 00:42:64
  TRACK 30 AUDIO
    TITLE "2Q_j_1407-1420_30"
    INDEX 01 00:46:24
  TRACK 31 AUDIO
    TITLE "2Q_j_1407-1420_31"
    INDEX 01 00:47:04
  TRACK 32 AUDIO
    TITLE "2Q_j_1407-1420_32"
    INDEX 01 00:48:49
  TRACK 33 AUDIO
    TITLE "2Q_j_1407-1420_33"
    INDEX 01 00:49:17
  TRACK 34 AUDIO
    TITLE "2Q_j_1407-1420_34"
    INDEX 01 00:51:02
  TRACK 35 AUDIO
    TITLE "2Q_j_1407-1420_35"
    INDEX 01 00:51:47
  TRACK 36 AUDIO
    TITLE "2Q_j_1407-1420_36"
    INDEX 01 00:55:43
  TRACK 37 AUDIO
    TITLE "2Q_j_1407-1420_37"
    INDEX 01 00:56:25
  TRACK 38 AUDIO
    TITLE "2Q_j_1407-1420_38"
    INDEX 01 00:57:65
  TRACK 39 AUDIO
    TITLE "2Q_j_1407-1420_39"
    INDEX 01 00:58:35
  TRACK 40 AUDIO
    TITLE "2Q_j_1407-1420_40"
    INDEX 01 01:00:30
  TRACK 41 AUDIO
    TITLE "2Q_j_1407-1420_41"
    INDEX 01 01:00:75
  TRACK 42 AUDIO
    TITLE "2Q_j_1407-1420_42"
    INDEX 01 01:04:61
  TRACK 43 AUDIO
    TITLE "2Q_j_1407-1420_43"
    INDEX 01 01:05:35
  TRACK 44 AUDIO
    TITLE "2Q_j_1407-1420_44"
    INDEX 01 01:06:70
  TRACK 45 AUDIO
    TITLE "2Q_j_1407-1420_45"
    INDEX 01 01:07:40
  TRACK 46 AUDIO
    TITLE "2Q_j_1407-1420_46"
    INDEX 01 01:09:49
  TRACK 47 AUDIO
    TITLE "2Q_j_1407-1420_47"
    INDEX 01 01:10:19
  TRACK 48 AUDIO
    TITLE "2Q_j_1407-1420_48"
    INDEX 01 01:15:41
  TRACK 49 AUDIO
    TITLE "2Q_j_1407-1420_49"
    INDEX 01 01:16:13
  TRACK 50 AUDIO
    TITLE "2Q_j_1407-1420_50"
    INDEX 01 01:17:66
  TRACK 51 AUDIO
    TITLE "2Q_j_1407-1420_51"
    INDEX 01 01:18:36
  TRACK 52 AUDIO
    TITLE "2Q_j_1407-1420_52"
    INDEX 01 01:20:25
  TRACK 53 AUDIO
    TITLE "2Q_j_1407-1420_53"
    INDEX 01 01:20:70
  TRACK 54 AUDIO
    TITLE "2Q_j_1407-1420_54"
    INDEX 01 01:26:30
  TRACK 55 AUDIO
    TITLE "2Q_j_1407-1420_55"
    INDEX 01 01:27:09
  TRACK 56 AUDIO
    TITLE "2Q_j_1407-1420_56"
    INDEX 01 01:28:24
  TRACK 57 AUDIO
    TITLE "2Q_j_1407-1420_57"
    INDEX 01 01:28:73
  TRACK 58 AUDIO
    TITLE "2Q_j_1407-1420_58"
    INDEX 01 01:30:19
  TRACK 59 AUDIO
    TITLE "2Q_j_1407-1420_59"
    INDEX 01 01:30:66
  TRACK 60 AUDIO
    TITLE "2Q_j_1407-1420_60"
    INDEX 01 01:34:31
  TRACK 61 AUDIO
    TITLE "2Q_j_1407-1420_61"
    INDEX 01 01:35:07
  TRACK 62 AUDIO
    TITLE "2Q_j_1407-1420_62"
    INDEX 01 01:36:22
  TRACK 63 AUDIO
    TITLE "2Q_j_1407-1420_63"
    INDEX 01 01:36:71
  TRACK 64 AUDIO
    TITLE "2Q_j_1407-1420_64"
    INDEX 01 01:38:43
  TRACK 65 AUDIO
    TITLE "2Q_j_1407-1420_65"
    INDEX 01 01:39:13
  TRACK 66 AUDIO
    TITLE "2Q_j_1407-1420_66"
    INDEX 01 01:42:38
  TRACK 67 AUDIO
    TITLE "2Q_j_1407-1420_67"
    INDEX 01 01:43:08
  TRACK 68 AUDIO
    TITLE "2Q_j_1407-1420_68"
    INDEX 01 01:44:22
  TRACK 69 AUDIO
    TITLE "2Q_j_1407-1420_69"
    INDEX 01 01:44:74
  TRACK 70 AUDIO
    TITLE "2Q_j_1407-1420_70"
    INDEX 01 01:46:20
  TRACK 71 AUDIO
    TITLE "2Q_j_1407-1420_71"
    INDEX 01 01:46:66
  TRACK 72 AUDIO
    TITLE "2Q_j_1407-1420_72"
    INDEX 01 01:53:07
  TRACK 73 AUDIO
    TITLE "2Q_j_1407-1420_73"
    INDEX 01 01:53:54
  TRACK 74 AUDIO
    TITLE "2Q_j_1407-1420_74"
    INDEX 01 01:55:06
  TRACK 75 AUDIO
    TITLE "2Q_j_1407-1420_75"
    INDEX 01 01:55:61
  TRACK 76 AUDIO
    TITLE "2Q_j_1407-1420_76"
    INDEX 01 01:57:40
  TRACK 77 AUDIO
    TITLE "2Q_j_1407-1420_77"
    INDEX 01 01:58:10
  TRACK 78 AUDIO
    TITLE "2Q_j_1407-1420_78"
    INDEX 01 02:00:42
  TRACK 79 AUDIO
    TITLE "2Q_j_1407-1420_79"
    INDEX 01 02:01:22
  TRACK 80 AUDIO
    TITLE "2Q_j_1407-1420_80"
    INDEX 01 02:02:66
  TRACK 81 AUDIO
    TITLE "2Q_j_1407-1420_81"
    INDEX 01 02:03:39
  TRACK 82 AUDIO
    TITLE "2Q_j_1407-1420_82"
    INDEX 01 02:07:01
  TRACK 83 AUDIO
    TITLE "2Q_j_1407-1420_83"
    INDEX 01 02:07:48
  TRACK 84 AUDIO
    TITLE "2Q_j_1407-1420_84"
    INDEX 01 02:10:70
